<svg width="1170" height="1164" viewBox="0 0 1170 1164" fill="none" xmlns="http://www.w3.org/2000/svg">
<path d="M975.829 815.147H912.836C911.685 806.997 909.336 799.758 905.788 793.43C902.241 787.006 897.686 781.54 892.125 777.034C886.564 772.528 880.14 769.076 872.853 766.679C865.662 764.282 857.848 763.083 849.411 763.083C834.165 763.083 820.886 766.871 809.572 774.445C798.258 781.924 789.485 792.854 783.253 807.237C777.021 821.523 773.904 838.877 773.904 859.3C773.904 880.298 777.021 897.94 783.253 912.226C789.581 926.512 798.402 937.299 809.716 944.586C821.03 951.873 834.118 955.516 848.979 955.516C857.321 955.516 865.039 954.413 872.134 952.208C879.325 950.003 885.701 946.791 891.262 942.572C896.824 938.257 901.426 933.032 905.069 926.896C908.809 920.759 911.397 913.76 912.836 905.898L975.829 906.185C974.199 919.705 970.124 932.744 963.604 945.305C957.18 957.769 948.503 968.939 937.573 978.815C926.738 988.595 913.794 996.361 898.741 1002.11C883.784 1007.77 866.861 1010.6 847.972 1010.6C821.701 1010.6 798.21 1004.65 777.5 992.766C756.886 980.876 740.586 963.666 728.601 941.134C716.712 918.602 710.767 891.324 710.767 859.3C710.767 827.18 716.808 799.854 728.888 777.322C740.969 754.79 757.365 737.627 778.075 725.834C798.786 713.945 822.085 708 847.972 708C865.039 708 880.859 710.397 895.433 715.191C910.103 719.985 923.095 726.984 934.409 736.189C945.723 745.298 954.927 756.468 962.022 769.699C969.213 782.931 973.816 798.08 975.829 815.147Z" fill="white"/>
<path d="M618.444 796.738C617.293 785.136 612.355 776.123 603.63 769.699C594.905 763.275 583.064 760.063 568.107 760.063C557.943 760.063 549.362 761.501 542.363 764.378C535.363 767.158 529.994 771.042 526.255 776.027C522.611 781.013 520.789 786.67 520.789 792.998C520.598 798.272 521.7 802.874 524.097 806.805C526.59 810.736 529.994 814.14 534.309 817.016C538.623 819.797 543.609 822.242 549.266 824.351C554.923 826.365 560.963 828.091 567.387 829.529L593.85 835.857C606.698 838.733 618.492 842.569 629.23 847.363C639.969 852.157 649.269 858.053 657.132 865.053C664.994 872.052 671.082 880.298 675.397 889.79C679.808 899.282 682.061 910.164 682.157 922.437C682.061 940.463 677.458 956.091 668.35 969.323C659.337 982.458 646.297 992.67 629.23 999.957C612.26 1007.15 591.789 1010.74 567.819 1010.74C544.04 1010.74 523.33 1007.1 505.688 999.813C488.142 992.526 474.431 981.739 464.555 967.453C454.776 953.071 449.646 935.285 449.167 914.096H509.428C510.099 923.971 512.927 932.217 517.913 938.833C522.995 945.353 529.754 950.29 538.192 953.646C546.725 956.906 556.361 958.536 567.1 958.536C577.647 958.536 586.803 957.002 594.57 953.934C602.432 950.866 608.52 946.599 612.835 941.134C617.149 935.669 619.307 929.389 619.307 922.293C619.307 915.678 617.341 910.116 613.41 905.61C609.575 901.104 603.918 897.268 596.439 894.104C589.056 890.94 579.996 888.064 569.257 885.475L537.185 877.421C512.352 871.381 492.744 861.936 478.362 849.088C463.98 836.24 456.837 818.934 456.933 797.169C456.837 779.335 461.583 763.755 471.171 750.427C480.855 737.1 494.135 726.697 511.01 719.218C527.885 711.739 547.061 708 568.538 708C590.399 708 609.479 711.739 625.779 719.218C642.174 726.697 654.926 737.1 664.035 750.427C673.144 763.755 677.842 779.191 678.13 796.738H618.444Z" fill="white"/>
<path d="M199 1006.57V712.026H316.933C338.602 712.026 356.676 715.238 371.154 721.662C385.632 728.086 396.514 737.003 403.801 748.413C411.088 759.727 414.732 772.767 414.732 787.532C414.732 799.038 412.43 809.154 407.828 817.879C403.226 826.508 396.898 833.603 388.844 839.164C380.886 844.629 371.777 848.513 361.518 850.814V853.69C372.736 854.169 383.235 857.334 393.015 863.182C402.89 869.031 410.896 877.229 417.033 887.776C423.169 898.227 426.237 910.691 426.237 925.169C426.237 940.798 422.354 954.748 414.588 967.021C406.917 979.198 395.555 988.834 380.502 995.929C365.449 1003.02 346.896 1006.57 324.843 1006.57H199ZM261.275 955.659H312.043C329.398 955.659 342.054 952.351 350.012 945.736C357.97 939.024 361.949 930.107 361.949 918.985C361.949 910.835 359.984 903.644 356.053 897.412C352.121 891.179 346.512 886.29 339.225 882.742C332.034 879.194 323.453 877.421 313.482 877.421H261.275V955.659ZM261.275 835.281H307.441C315.974 835.281 323.549 833.795 330.165 830.823C336.876 827.754 342.15 823.44 345.985 817.879C349.916 812.318 351.882 805.654 351.882 797.888C351.882 787.245 348.094 778.663 340.52 772.144C333.041 765.624 322.398 762.364 308.592 762.364H261.275V835.281Z" fill="white"/>
<path d="M566.479 122.28C536.62 124.506 510.78 130.75 484.007 142.019C458.957 152.642 437.208 166.208 414.024 185.803C409.215 189.895 404.478 193.771 403.616 194.488C402.468 195.422 399.884 195.709 391.701 195.996C380.001 196.426 377.489 197.001 372.537 200.302C370.024 201.953 368.517 203.748 366.938 206.834C364.785 211.069 364.785 211.284 364.426 225.137L364.067 239.206L359.832 245.666C339.447 276.602 325.307 312.706 319.278 349.025C316.407 366.467 315.976 372.209 315.976 396.398C316.048 422.166 316.55 428.267 320.642 448.437C326.814 479.157 339.375 509.591 357.176 537.082C359.688 541.03 362.703 545.408 363.78 546.772L365.718 549.284L366.005 564.357C366.292 578.138 366.436 579.718 367.943 583.163C368.876 585.244 371.029 588.187 372.68 589.766C377.202 593.929 381.078 594.863 394.357 594.863H405.411L416.68 603.907C451.635 631.9 488.098 649.916 527.504 658.744C554.636 664.774 589.304 666.712 615.288 663.769C647.731 660.036 677.088 651.208 706.086 636.422C725.825 626.373 750.803 609.362 763.292 597.518L765.589 595.365L777.648 594.863C791.645 594.288 794.587 593.355 799.396 587.9C802.985 583.737 803.631 580.794 803.775 565.865C803.847 554.165 803.918 553.878 805.785 551.222C816.695 536.077 823.011 525.669 829.471 512.247C840.884 488.417 847.057 469.468 852.081 442.695C861.053 394.963 856.675 344.934 839.448 298.422C832.988 281.052 819.422 254.71 808.727 238.847L806.072 234.899L805.713 222.697C805.354 208.629 804.493 205.686 799.181 201.164C794.516 197.144 790.424 196.068 778.725 195.565L768.46 195.063L760.421 187.813C731.854 161.83 694.96 141.66 657.134 131.253C633.447 124.793 616.651 122.568 589.807 122.209C578.968 122.137 568.489 122.137 566.479 122.28ZM603.085 138.861C613.924 140.943 628.638 147.331 639.764 154.724C647.372 159.82 660.436 170.874 665.819 176.831C673.858 185.588 683.62 199.944 690.797 213.438L694.889 221.118L695.176 230.664L695.535 240.211L693.453 240.713C684.05 242.795 672.709 247.173 665.101 251.623L660.364 254.423L656.488 251.551C648.449 245.737 631.581 236.909 619.522 232.172C613.852 229.946 599.281 225.496 593.252 224.204L591.242 223.774V180.348V136.923L594.329 137.354C595.979 137.569 599.927 138.215 603.085 138.861ZM580.476 179.702V221.764L578.538 221.261C574.949 220.4 555.784 218.749 548.463 218.749C523.843 218.749 495.204 224.348 479.198 232.459C472.666 235.689 471.876 235.473 472.881 230.808C474.102 225.496 484.007 207.265 493.123 193.627C502.525 179.631 515.948 165.419 528.15 156.734C543.151 145.967 563.895 137.856 576.743 137.713L580.476 137.641V179.702ZM661.225 147.331C681.323 153.934 697.401 161.543 716.781 173.529C730.849 182.215 744.846 193.268 743.913 194.847C743.625 195.278 737.166 195.709 727.332 195.924C712.115 196.355 710.967 196.426 707.378 198.149C705.296 199.082 702.641 200.733 701.564 201.81C700.487 202.815 699.267 203.676 698.98 203.676C698.621 203.676 696.97 201.307 695.319 198.436C687.639 185.445 674.001 167.859 665.46 159.964C662.732 157.451 656.631 152.499 651.894 148.91L643.281 142.522L646.511 143.024C648.305 143.311 654.909 145.249 661.225 147.331ZM525.566 143.957C525.135 144.316 523.054 145.823 520.9 147.403C506.33 157.738 488.816 178.123 474.676 200.948L471.23 206.475L467.57 202.671C461.541 196.57 458.598 195.78 441.586 195.78C433.906 195.78 427.59 195.493 427.59 195.206C427.59 194.488 440.294 184.009 447.4 178.913C459.387 170.299 481.136 158.528 495.419 152.858C511.641 146.469 528.365 141.517 525.566 143.957ZM461.325 203.245C462.833 204.25 464.771 206.26 465.704 207.767C467.426 210.495 467.426 210.71 467.498 230.592C467.498 241.646 467.354 259.016 467.139 269.137L466.708 287.512L464.555 290.598C463.335 292.393 460.966 294.403 459.1 295.336L455.798 297.058H418.043C381.652 297.058 380.217 296.987 377.489 295.623C373.9 293.757 371.101 290.527 370.168 286.938C369.666 285.071 369.45 271.577 369.594 247.173L369.809 210.279L371.962 207.193C373.183 205.542 375.408 203.461 376.987 202.671C379.786 201.236 381.078 201.164 415.747 200.805C435.485 200.59 453.214 200.661 455.152 200.948C457.09 201.236 459.89 202.24 461.325 203.245ZM560.378 234.54C564.541 234.899 570.714 235.617 574.231 236.048L580.476 236.909V248.393V259.878L561.311 259.375C550.688 259.16 540.783 258.801 539.204 258.586C537.625 258.37 531.667 257.724 525.925 257.15C508.052 255.212 482.858 250.331 482.858 248.896C482.858 248.106 493.912 242.866 499.367 241.072C509.344 237.914 521.69 235.473 534.538 234.253C539.993 233.751 553.2 233.894 560.378 234.54ZM601.793 241.646C606.818 243.154 613.565 245.45 616.723 246.671C623.398 249.326 634.309 255.14 634.309 256.002C634.309 256.361 632.945 256.863 631.294 257.078C625.193 257.94 602.942 259.662 597.2 259.662H591.242V249.255C591.242 243.441 591.529 238.847 591.888 238.847C592.247 238.847 596.697 240.067 601.793 241.646ZM694.602 256.504C695.391 258.442 695.606 284.784 694.889 284.784C693.74 284.784 683.548 278.97 678.811 275.525L673.427 271.649L669.479 273.802C667.326 275.023 665.532 276.315 665.46 276.602C665.029 278.037 680.749 289.952 687.639 293.469C693.453 296.484 705.44 300.36 712.259 301.509L717.929 302.442L719.508 310.337C723.312 329.071 725.681 351.178 726.614 376.444L727.117 390.297H680.749H634.452L634.165 375.367L633.95 360.509L631.725 355.772C627.633 347.231 623.829 345.795 604.736 345.293L591.242 344.934V342.278C591.242 339.909 591.601 339.407 594.041 338.043C604.521 332.157 618.446 318.52 635.744 297.345C653.904 275.023 659.646 269.639 672.638 262.821C678.021 260.021 691.156 254.853 693.381 254.71C693.668 254.638 694.243 255.499 694.602 256.504ZM492.477 262.821C502.454 265.117 520.613 267.845 532.744 268.993C537.481 269.424 542.649 269.926 544.228 270.07C545.807 270.214 553.918 270.572 562.172 270.788C570.499 271.003 577.963 271.362 578.896 271.577L580.476 271.864L580.332 301.796L580.117 331.655L573.298 335.746C564.685 340.986 558.44 343.211 548.535 344.647C537.912 346.226 534.323 347.518 530.59 351.107C525.709 355.772 524.92 359.146 524.92 375.942L524.848 389.938H485.012H445.247L445.391 377.736C445.75 355.126 447.903 332.732 451.635 312.778C452.568 307.466 453.43 302.872 453.43 302.513C453.43 302.226 454.147 302.011 455.081 302.011C457.521 302.011 463.55 298.853 466.206 296.197C471.087 291.316 471.589 289.522 472.164 274.018C472.451 266.338 472.738 259.519 472.738 258.873C472.81 257.868 473.456 257.94 478.408 259.303C481.423 260.237 487.739 261.816 492.477 262.821ZM814.829 277.248C824.447 296.771 830.045 311.414 834.854 330.004C839.089 346.01 842.104 367.759 842.535 384.555L842.678 389.938L813.608 390.154L784.539 390.297L784.036 401.279C782.672 432.718 776.356 456.978 763.364 481.813L759.56 488.991L744.343 489.206C735.945 489.278 729.055 489.206 729.055 488.991C729.055 488.776 729.988 480.808 731.208 471.19C733.936 449.155 735.443 431.713 735.945 416.352C736.161 409.749 736.448 403.576 736.663 402.643L736.95 401.064H755.971H774.992V395.68V390.297H759.56C749.87 390.297 744.128 390.01 744.128 389.579C744.128 389.22 746.425 385.416 749.296 381.181C762.216 361.873 767.814 345.508 766.881 329.645C766.522 323.257 763.723 310.122 761.642 305.241C761.139 303.877 760.637 302.657 760.637 302.442C760.637 302.298 767.168 302.011 775.207 301.867C788.127 301.652 790.065 301.437 793.008 300.145C797.315 298.135 801.263 294.115 803.416 289.522C804.995 286.076 805.139 285 805.139 273.372V260.883L806.646 262.246C807.507 262.964 811.168 269.711 814.829 277.248ZM366.364 290.957C368.589 295.049 373.685 299.355 378.135 300.791C380.863 301.724 384.452 302.011 392.491 302.011C398.52 302.011 403.257 302.298 403.544 302.729C403.76 303.088 402.468 305.959 400.673 309.045C396.367 316.438 390.122 330.435 387.107 339.622C383.016 351.824 378.853 376.157 378.781 388.287V390.297H353.946H329.04L329.542 382.186C331.121 357.423 334.71 336.464 340.883 317.084C345.764 301.796 356.387 277.607 362.129 268.706L364.067 265.763L364.426 276.889C364.785 286.507 365.072 288.445 366.364 290.957ZM645.075 267.271C645.075 267.486 642.563 270.501 639.477 273.874C636.39 277.32 630.361 284.497 625.982 289.809C616.436 301.652 604.162 314.428 597.271 319.668C594.544 321.822 592.032 323.544 591.745 323.544C591.458 323.544 591.242 311.773 591.242 297.489V271.362L602.224 270.86C613.996 270.357 632.012 268.634 636.318 267.63C639.405 266.84 645.075 266.625 645.075 267.271ZM442.807 302.37C443.022 302.585 442.735 304.954 442.161 307.61C439.002 322.683 436.131 352.255 434.552 386.349L434.409 389.938H413.593H392.778L392.706 386.708C392.204 363.955 405.554 324.19 420.269 304.308L421.991 302.011H432.255C437.854 302.011 442.591 302.154 442.807 302.37ZM748.793 307.322C753.244 316.797 754.536 322.755 754.536 333.234C754.536 340.771 754.177 343.642 752.885 348.236C750.875 355.198 746.066 365.103 741.041 372.568L737.309 378.167L736.807 375.08C736.591 373.358 736.304 369.553 736.304 366.539C736.161 354.552 732.644 324.405 729.772 310.194C728.983 306.389 728.552 303.016 728.768 302.657C728.983 302.298 733.002 302.011 737.74 302.011H746.353L748.793 307.322ZM379.858 405.155C383.231 435.373 394.644 461.644 414.024 483.751C416.393 486.335 418.259 488.632 418.259 488.847C418.259 488.991 412.229 489.206 404.836 489.278C380.935 489.493 376.484 490.283 370.814 495.594C365.79 500.332 364.856 503.705 365.359 515.405C365.574 520.501 365.646 524.521 365.502 524.377C363.636 522.367 351.578 498.681 347.343 488.632C337.294 464.73 331.552 439.034 329.614 408.385L329.111 401.064H354.233H379.427L379.858 405.155ZM435.055 404.365C435.27 406.232 435.485 410.825 435.485 414.63C435.485 423.386 437.136 444.202 439.505 464.946C442.232 489.135 442.304 489.35 441.228 489.35C439.864 489.35 432.112 482.89 426.083 476.645C415.747 466.094 406.272 452.097 402.109 441.331C398.376 431.641 393.137 409.318 393.137 403.002V401.064H413.88H434.552L435.055 404.365ZM525.207 408.887V416.711L519.68 420.444C512.861 425.037 505.468 432.143 497.573 441.618C482.858 459.419 475.968 472.554 468.79 496.384C468.575 497.03 467.57 496.528 465.488 494.733C463.55 493.154 460.607 491.647 457.665 490.714L452.855 489.278L451.348 479.445C448.118 458.629 446.611 441.474 445.821 415.922L445.319 401.064H485.227H525.207V408.887ZM712.115 402.069C709.747 403.719 695.391 410.754 690.008 412.907C677.662 417.788 662.015 420.228 647.587 419.51C642.85 419.223 637.897 418.864 636.677 418.577L634.309 418.075V409.605V401.064H673.93C708.311 401.064 713.407 401.207 712.115 402.069ZM842.463 405.514C842.463 411.256 840.74 426.904 838.874 437.814C835.5 457.84 829.112 479.373 821.217 497.174C816.192 508.586 805.928 527.607 804.78 527.679C804.349 527.751 803.918 523.157 803.703 515.907C803.272 502.844 802.555 500.188 798.463 495.953C794.228 491.503 791.357 490.498 782.17 490.211C777.648 490.068 773.628 489.637 773.27 489.35C772.982 488.991 773.844 486.263 775.351 483.105C784.61 463.654 789.707 440.613 790.568 414.486L790.999 401.064H816.695H842.463V405.514ZM726.614 415.347C725.753 432.072 724.748 444.417 723.312 455.614C721.733 467.888 718.575 487.627 718.001 488.56C717.786 488.847 715.632 489.35 713.192 489.565C707.593 490.211 703.358 492.077 699.841 495.594C696.109 499.327 695.176 502.916 694.817 514.831C694.673 520.358 694.458 524.951 694.314 525.023C694.243 525.095 693.022 524.88 691.659 524.449C671.202 518.348 630.935 512.606 605.957 512.247C602.009 512.175 597.056 511.96 595.046 511.816L591.242 511.385V481.454V451.451L604.019 451.164C614.857 450.877 617.297 450.59 620.743 449.298C629.069 445.996 633.16 440.469 634.021 431.354L634.524 426.042L636.749 426.545C646.798 428.554 654.119 429.129 665.891 428.842C680.031 428.483 683.189 427.765 696.037 422.382C707.88 417.429 713.981 414.199 720.154 409.677C723.241 407.38 726.112 405.657 726.471 405.873C726.758 406.088 726.83 410.323 726.614 415.347ZM526.499 439.177C527.719 442.264 531.595 446.212 535.256 448.078C540.424 450.734 545.735 451.308 563.751 451.308H580.476V481.383V511.529L577.461 511.888C575.738 512.103 568.058 512.39 560.378 512.606C552.698 512.821 541.716 513.539 535.974 514.113C521.403 515.692 496.927 519.783 487.237 522.367C477.475 524.951 477.116 524.951 477.116 522.87C477.116 519.425 481.495 500.547 484.294 491.79C491.041 470.975 499.654 456.691 514.656 441.618L524.705 431.569L525.279 434.44C525.566 436.019 526.14 438.173 526.499 439.177ZM717.068 494.877C716.565 495.02 715.704 495.02 715.273 494.877C714.771 494.661 715.13 494.518 716.135 494.518C717.14 494.518 717.499 494.661 717.068 494.877ZM726.184 494.661C726.184 494.805 725.107 495.092 723.743 495.236C722.379 495.379 721.446 495.236 721.59 494.948C721.949 494.374 726.184 494.087 726.184 494.661ZM728.337 495.092C728.337 495.451 728.193 495.81 728.05 495.81C727.834 495.81 727.476 495.451 727.26 495.092C727.045 494.661 727.188 494.374 727.547 494.374C727.978 494.374 728.337 494.661 728.337 495.092ZM731.208 494.805C731.208 495.379 729.844 495.738 729.485 495.236C729.27 494.877 729.557 494.59 730.131 494.59C730.706 494.59 731.208 494.733 731.208 494.805ZM734.725 495.092C734.294 495.451 733.433 495.523 732.859 495.307C731.495 494.733 731.71 494.518 733.792 494.518C735.012 494.518 735.371 494.733 734.725 495.092ZM739.032 495.092C738.601 495.451 737.74 495.523 737.166 495.307C735.802 494.733 736.017 494.518 738.099 494.518C739.319 494.518 739.678 494.733 739.032 495.092ZM746.497 494.877C745.994 495.02 745.133 495.02 744.702 494.877C744.2 494.661 744.559 494.518 745.563 494.518C746.568 494.518 746.927 494.661 746.497 494.877ZM711.326 495.594C710.823 495.738 709.962 495.738 709.531 495.594C709.029 495.379 709.388 495.236 710.393 495.236C711.397 495.236 711.756 495.379 711.326 495.594ZM787.051 495.594C785.902 495.738 784.18 495.738 783.103 495.594C781.955 495.451 782.888 495.307 785.041 495.307C787.194 495.307 788.127 495.451 787.051 495.594ZM708.167 496.025C708.024 496.169 706.588 497.102 705.009 498.25L702.138 500.26L704.507 498.035C705.799 496.815 707.163 495.81 707.665 495.81C708.096 495.81 708.311 495.882 708.167 496.025ZM792.793 497.245C795.162 498.681 797.961 502.557 797.961 504.423C797.961 504.997 797.243 503.992 796.382 502.27C795.305 500.116 793.726 498.466 791.86 497.461C790.281 496.528 789.348 495.81 789.707 495.81C790.137 495.81 791.501 496.456 792.793 497.245ZM702.138 501.624C701.851 501.983 701.42 503.849 701.062 505.715C700.631 508.443 700.487 508.658 700.416 506.792C700.344 504.495 701.42 500.834 702.138 500.834C702.425 500.834 702.354 501.193 702.138 501.624ZM798.463 508.514C798.248 509.232 798.104 508.802 798.104 507.653C798.104 506.433 798.248 505.93 798.463 506.361C798.607 506.864 798.607 507.868 798.463 508.514ZM700.559 512.39C699.985 514.4 699.698 514.041 699.77 511.529C699.841 510.309 700.057 509.735 700.344 510.237C700.631 510.668 700.703 511.673 700.559 512.39ZM798.463 560.984C798.392 570.315 798.32 562.635 798.32 543.901C798.32 525.167 798.392 517.487 798.463 526.889C798.607 536.22 798.607 551.581 798.463 560.984ZM700.344 547.49C700.344 565.434 700.2 580.22 699.985 580.364C699.77 580.579 699.626 565.793 699.626 547.49C699.626 529.186 699.77 514.4 699.985 514.615C700.2 514.831 700.344 529.617 700.344 547.49ZM580.476 548.207V573.329H575.666C565.977 573.258 548.535 570.099 535.615 566.008C526.714 563.209 513.507 557.395 505.827 552.801C500.3 549.499 488.959 540.958 485.083 537.082L483.361 535.431L488.313 533.924C506.76 528.253 543.582 523.372 568.848 523.157L580.476 523.085V548.207ZM620.24 524.162C642.707 525.741 654.406 527.32 671.274 531.052C685.486 534.211 692.52 536.508 691.946 537.8C690.51 541.747 667.398 554.811 650.817 561.127C632.371 568.161 608.541 573.329 594.472 573.329H591.242V548.207V523.085H598.276C602.081 523.085 611.986 523.588 620.24 524.162ZM494.271 561.414C500.3 565.29 508.914 570.171 513.292 572.253C530.375 580.292 552.267 585.747 573.872 587.326L580.476 587.828L580.332 618.118L580.117 648.337L576.887 648.121C571.719 647.691 561.957 645.394 555.353 643.025C534.538 635.489 510.564 613.884 492.118 586.321C481.997 571.104 473.097 551.581 474.532 547.705C474.891 546.844 475.896 547.49 479.126 550.504C481.351 552.586 488.17 557.538 494.271 561.414ZM693.166 557.108C693.166 558.687 689.003 568.233 685.127 575.483C664.814 613.596 630.576 642.451 600.214 647.26C597.487 647.691 594.329 648.193 593.252 648.337L591.242 648.624V618.19V587.757L595.046 587.398C597.056 587.182 601.076 586.824 603.803 586.536C613.062 585.747 628.207 582.732 639.333 579.502C654.191 575.267 675.796 565.936 688.5 558.328C692.592 555.887 693.166 555.744 693.166 557.108ZM477.044 583.594C482.141 592.063 490.826 604.265 496.711 611.371C504.535 620.774 519.178 635.058 525.709 639.723C529.011 642.02 531.523 644.03 531.38 644.174C530.806 644.748 512.072 639.508 502.238 636.063C481.997 629.1 454.291 613.74 434.409 598.523L430.102 595.221L443.381 594.863L456.66 594.432L461.182 592.063C466.565 589.12 469.58 585.89 470.728 581.799C471.159 580.076 471.661 578.282 471.805 577.78C472.235 576.2 473.24 577.349 477.044 583.594ZM797.961 581.512C797.171 583.881 792.075 589.12 790.568 589.12C790.209 589.12 791.357 588.044 793.08 586.752C794.803 585.388 796.095 583.809 796.095 583.163C796.023 582.517 796.238 582.086 796.525 582.302C796.884 582.517 797.315 581.656 797.602 580.435C797.889 579.215 798.248 578.426 798.463 578.641C798.679 578.784 798.463 580.148 797.961 581.512ZM696.324 585.316C697.616 587.9 701.492 591.489 704.65 593.14C706.804 594.36 709.388 594.575 724.03 594.863C734.294 595.078 740.898 595.509 740.826 595.939C740.754 597.088 728.624 605.988 719.006 612.017C699.626 624.148 687.639 630.033 669.049 636.493C659.431 639.795 638.687 645.466 638.113 644.891C638.041 644.748 639.907 643.24 642.419 641.518C660.436 628.957 678.452 608.859 692.735 585.316C693.381 584.24 694.243 583.378 694.602 583.378C694.96 583.378 695.75 584.24 696.324 585.316ZM705.512 587.254C706.517 587.9 709.459 588.761 711.972 589.12L716.494 589.766L712.043 589.479C707.019 589.264 703.645 587.613 701.923 584.814L700.918 583.019L702.21 584.527C702.999 585.388 704.435 586.608 705.512 587.254ZM719.221 589.623C718.719 589.766 717.857 589.766 717.427 589.623C716.924 589.407 717.283 589.264 718.288 589.264C719.293 589.264 719.652 589.407 719.221 589.623ZM735.371 589.623C733.074 589.766 729.198 589.766 726.758 589.623C724.246 589.479 726.112 589.407 730.849 589.407C735.586 589.407 737.596 589.479 735.371 589.623ZM767.24 589.623C762 589.766 753.603 589.766 748.578 589.623C743.554 589.551 747.86 589.407 758.125 589.407C768.389 589.407 772.48 589.551 767.24 589.623ZM780.519 589.551C780.304 589.766 779.658 589.838 779.155 589.623C778.581 589.407 778.796 589.192 779.586 589.192C780.375 589.12 780.806 589.336 780.519 589.551ZM788.127 589.623C787.194 589.766 785.759 589.766 784.897 589.623C783.964 589.479 784.682 589.336 786.477 589.336C788.271 589.336 788.989 589.479 788.127 589.623Z" fill="white"/>
<path d="M370.347 504.961C370.347 498.421 375.65 493.118 382.19 493.118H455.942C462.483 493.118 467.785 498.421 467.785 504.961V578.713C467.785 585.253 462.483 590.556 455.942 590.556H382.19C375.65 590.556 370.347 585.253 370.347 578.713V504.961Z" fill="white"/>
<path d="M366.041 578.713V504.961C366.041 496.042 373.271 488.812 382.19 488.812V493.118C375.65 493.118 370.347 498.421 370.347 504.961V578.713L370.351 579.018C370.513 585.418 375.752 590.556 382.19 590.556H455.942L456.247 590.552C462.545 590.393 467.622 585.316 467.781 579.018L467.785 578.713V504.961C467.785 498.523 462.647 493.284 456.247 493.122L455.942 493.118V488.812C464.861 488.812 472.092 496.042 472.092 504.961V578.713C472.092 587.632 464.861 594.863 455.942 594.863H382.19C373.271 594.863 366.041 587.632 366.041 578.713ZM455.942 488.812V493.118H382.19V488.812H455.942Z" fill="white"/>
<path d="M370.347 211.573C370.347 205.032 375.65 199.729 382.19 199.729H455.942C462.483 199.729 467.785 205.032 467.785 211.573V285.324C467.785 291.865 462.483 297.167 455.942 297.167H382.19C375.65 297.167 370.347 291.865 370.347 285.324V211.573Z" fill="white"/>
<path d="M366.041 285.324V211.573C366.041 202.653 373.271 195.423 382.19 195.423V199.729C375.65 199.729 370.347 205.032 370.347 211.573V285.324L370.351 285.629C370.513 292.029 375.752 297.167 382.19 297.167H455.942L456.247 297.164C462.545 297.004 467.622 291.928 467.781 285.629L467.785 285.324V211.573C467.785 205.134 462.647 199.895 456.247 199.733L455.942 199.729V195.423C464.861 195.423 472.092 202.653 472.092 211.573V285.324C472.092 294.243 464.861 301.474 455.942 301.474H382.19C373.271 301.474 366.041 294.243 366.041 285.324ZM455.942 195.423V199.729H382.19V195.423H455.942Z" fill="white"/>
<path d="M704.112 211.573C704.112 205.032 709.414 199.729 715.955 199.729H789.706C796.247 199.729 801.55 205.032 801.55 211.573V285.324C801.55 291.865 796.247 297.167 789.706 297.167H715.955C709.414 297.167 704.112 291.865 704.112 285.324V211.573Z" fill="white"/>
<path d="M699.805 285.324V211.573C699.805 202.653 707.036 195.423 715.955 195.423V199.729C709.414 199.729 704.112 205.032 704.112 211.573V285.324L704.115 285.629C704.278 292.029 709.516 297.167 715.955 297.167H789.706L790.012 297.164C796.31 297.004 801.386 291.928 801.546 285.629L801.55 285.324V211.573C801.55 205.134 796.411 199.895 790.012 199.733L789.706 199.729V195.423C798.626 195.423 805.856 202.653 805.856 211.573V285.324C805.856 294.243 798.626 301.474 789.706 301.474H715.955C707.036 301.474 699.805 294.243 699.805 285.324ZM789.706 195.423V199.729H715.955V195.423H789.706Z" fill="white"/>
<path d="M700.882 504.961C700.882 498.421 706.185 493.118 712.726 493.118H786.477C793.018 493.118 798.32 498.421 798.32 504.961V578.713C798.32 585.253 793.018 590.556 786.477 590.556H712.726C706.185 590.556 700.882 585.253 700.882 578.713V504.961Z" fill="white"/>
<path d="M696.576 578.713V504.961C696.576 496.042 703.806 488.812 712.726 488.812V493.118C706.185 493.118 700.882 498.421 700.882 504.961V578.713L700.886 579.018C701.048 585.418 706.287 590.556 712.726 590.556H786.477L786.782 590.552C793.08 590.393 798.157 585.316 798.316 579.018L798.32 578.713V504.961C798.32 498.523 793.182 493.284 786.782 493.122L786.477 493.118V488.812C795.396 488.812 802.627 496.042 802.627 504.961V578.713C802.627 587.632 795.396 594.863 786.477 594.863H712.726C703.806 594.863 696.576 587.632 696.576 578.713ZM786.477 488.812V493.118H712.726V488.812H786.477Z" fill="white"/>
<path d="M530.77 360.151C530.77 353.61 536.072 348.308 542.613 348.308H616.365C622.905 348.308 628.208 353.61 628.208 360.151V433.902C628.208 440.443 622.905 445.745 616.365 445.745H542.613C536.072 445.745 530.77 440.443 530.77 433.902V360.151Z" fill="white"/>
<path d="M526.463 433.902V360.151C526.463 351.232 533.694 344.001 542.613 344.001V348.308C536.072 348.308 530.77 353.61 530.77 360.151V433.902L530.774 434.208C530.936 440.607 536.175 445.745 542.613 445.745H616.365L616.67 445.742C622.968 445.582 628.045 440.506 628.204 434.208L628.208 433.902V360.151C628.208 353.712 623.07 348.473 616.67 348.311L616.365 348.308V344.001C625.284 344.001 632.514 351.232 632.514 360.151V433.902C632.514 442.821 625.284 450.052 616.365 450.052H542.613C533.694 450.052 526.463 442.821 526.463 433.902ZM616.365 344.001V348.308H542.613V344.001H616.365Z" fill="white"/>
</svg>
