<svg width="1819" height="715" viewBox="0 0 1819 715" fill="none" xmlns="http://www.w3.org/2000/svg">
<path d="M0 30V60H30H60V30V-3.12924e-06H30H0V30Z" fill="#00256C"/>
<path d="M0 123.333V153.333H30H60V123.333V93.333H30H0V123.333Z" fill="#00256C"/>
<path d="M1628 178C1596.13 183.2 1570.53 195.6 1547.73 217.067C1503.73 258.4 1485.07 330.8 1500.27 401.2C1514.93 469.6 1561.33 516.267 1625.2 527.333C1641.33 530.133 1671.33 530.133 1688 527.467C1744.27 518.4 1788.53 480 1807.87 423.333C1815.6 400.267 1818.8 380.4 1818.8 353.2C1818.8 329.6 1816 310 1809.87 289.733C1798.27 251.2 1777.33 222 1746.8 201.467C1729.33 189.6 1708.93 181.733 1686 178C1671.73 175.6 1642.27 175.6 1628 178ZM1680.4 216.533C1700.67 220.4 1720.4 230.8 1734.8 245.2C1780.13 290.667 1786.53 386.4 1748.13 444.8C1741.07 455.467 1725.33 470.267 1713.87 477.067C1682.4 495.6 1635.87 496.667 1604.53 479.467C1583.87 468 1570.27 454 1559.07 432.4C1546.67 408.533 1541.07 384.133 1541.2 353.467C1541.2 280.533 1576.53 228 1633.33 216.667C1645.07 214.267 1668.27 214.267 1680.4 216.533Z" fill="#00256C"/>
<path d="M312.8 178.4C312.533 178.934 285.867 241.2 253.6 316.667C186.267 474.267 188.533 469.067 181.333 481.467C171.333 498.534 164.933 503.734 149.6 507.067C142.133 508.8 142 508.934 141.6 513.734L141.2 518.667H193.867H246.667V514C246.667 508.934 247.6 509.334 232.267 506.8C216.267 504.267 208.533 497.867 208.8 487.6C208.933 479.867 214 465.6 227.733 434L239.333 407.334L303.467 406.934L367.6 406.667L380 436.267C393.6 468.934 397.333 480.4 397.333 489.2C397.333 494.134 396.533 495.734 392.4 500C387.467 504.8 383.467 506.267 369.067 508.667C364.4 509.334 364 509.734 364 514V518.667H430H496V514C496 510 495.467 509.334 492.4 508.667C474.533 504.934 469.2 502.534 462 495.067C451.067 483.867 450.667 482.934 374.533 300.4L323.333 177.467L318.4 177.334C315.733 177.334 313.2 177.734 312.8 178.4ZM333.333 323.334C348 358.267 360 387.2 360 387.467C360 387.734 334.8 388 304 388C273.2 388 248 387.734 248 387.334C248 386.8 298.533 268.8 302.8 259.6C304.133 256.667 304.667 256.267 305.6 257.867C306.267 258.934 318.667 288.4 333.333 323.334Z" fill="#B5AFA2"/>
<path d="M740 187.866V193.066L751.733 193.6C761.2 194 765.067 194.933 771.067 197.866C779.867 202.133 783.467 206.533 785.333 215.466C786.267 219.866 786.667 266 786.4 354C786 499.333 786.4 490.8 777.867 498.933C772 504.4 764.8 506.8 751.867 507.6L740 508.4V512.8V517.333H811.333H882.667V512.8V508.4L871.467 507.733C857.6 507.066 844.533 501.333 840 494C835.067 486.133 834.533 466.266 834.933 339.2C835.467 231.866 835.6 220 837.733 213.866C842.4 199.733 850.933 194.4 870.4 193.6L882.667 193.066V187.866V182.666H811.333H740V187.866Z" fill="#B5AFA2"/>
<path d="M914.667 353.334V522.667H936H957.333L957.6 387.334L958 251.867L1046 387.2L1134 522.534L1159.07 522.667H1184V353.334V184H1162.67H1141.33L1141.07 320.934L1140.67 458L1052 321.334L963.2 184.667L938.933 184.267L914.667 184V353.334Z" fill="#00256C"/>
<path d="M1230.67 353.334V522.667L1348.4 522.4L1466 522L1466.4 502.934L1466.8 484H1371.33H1276V426V368H1364H1452V348.667V329.334H1364H1276V276V222.667L1370.4 222.4L1464.67 222L1465.07 202.934L1465.47 184H1348H1230.67V353.334Z" fill="#00256C"/>
<path d="M378.267 186.266C377.733 186.666 377.333 189.066 377.333 191.333C377.333 195.466 377.6 195.733 384.133 196.533C394.533 197.999 404.4 202.266 411.467 208.399C419.867 215.866 421.067 218.266 494.8 388.399L555.333 528.133L560.533 527.733L565.6 527.333L625.2 381.999C658 301.999 686.8 232.799 689.333 228.133C694.667 218.266 703.733 207.733 710.8 203.199C713.6 201.466 719.467 199.066 724 197.733L732.133 195.466L731.733 190.799L731.333 185.999L679.733 185.599L628 185.333V190.399V195.599L635.733 197.199C650.8 200.533 660.133 206.933 662.533 215.466C664.4 222.399 660.267 237.066 646.133 271.999C603.2 378.533 574 449.199 573.067 448.266C571.2 446.399 486.4 249.733 482.4 238.133C477.6 223.599 476.933 213.599 480.8 208.399C484.667 203.066 493.333 199.066 504.8 197.199L514.8 195.599L514.4 190.799L514 185.999L446.533 185.599C409.467 185.466 378.667 185.733 378.267 186.266Z" fill="#B5AFA2"/>
<path d="M0 216.667V246.667H30H60V216.667V186.667H30H0V216.667Z" fill="#00256C"/>
<path d="M0 310V340H30H60V310V280H30H0V310Z" fill="#00256C"/>
<path d="M0 404V433.333H30H60V404V374.666H30H0V404Z" fill="#00256C"/>
<path d="M0 498V528H30H60V498V468H30H0V498Z" fill="#00256C"/>
<path d="M0 591.333V621.333H30H60V591.333V561.333H30H0V591.333Z" fill="#00256C"/>
<path d="M0 684.667V714.667H30H60V684.667V654.667H30H0V684.667Z" fill="#00256C"/>
</svg>
