<svg width="16" height="16" viewBox="0 0 16 16" fill="none" xmlns="http://www.w3.org/2000/svg">
<path d="M13.0385 8.46885C12.5714 8.54507 12.1962 8.72682 11.862 9.04146C11.2171 9.64729 10.9435 10.7085 11.1663 11.7403C11.3813 12.7429 12.0614 13.4269 12.9975 13.5891C13.234 13.6301 13.6737 13.6301 13.918 13.591C14.7427 13.4582 15.3915 12.8953 15.6749 12.0647C15.7882 11.7267 15.8351 11.4355 15.8351 11.0368C15.8351 10.6909 15.7941 10.4036 15.7042 10.1065C15.5341 9.54176 15.2273 9.11377 14.7798 8.81281C14.5238 8.63888 14.2248 8.52357 13.8886 8.46885C13.6795 8.43368 13.2476 8.43368 13.0385 8.46885ZM13.8066 9.03364C14.1036 9.09032 14.3928 9.24275 14.6039 9.45382C15.2684 10.1202 15.3622 11.5234 14.7993 12.3794C14.6958 12.5357 14.4652 12.7527 14.2971 12.8523C13.8359 13.124 13.1538 13.1396 12.6946 12.8875C12.3917 12.7194 12.1923 12.5142 12.0282 12.1976C11.8464 11.8478 11.7643 11.4902 11.7663 11.0407C11.7663 9.9717 12.2842 9.20171 13.1167 9.0356C13.2887 9.00042 13.6287 9.00042 13.8066 9.03364Z" fill="#00256C"/>
<path d="M5.09818 2.53805C5.09427 2.54587 4.70341 3.45852 4.23047 4.56464C3.24356 6.87461 3.27678 6.7984 3.17125 6.98014C3.02468 7.23029 2.93087 7.30651 2.70613 7.35537C2.59669 7.38077 2.59473 7.38273 2.58887 7.45308L2.58301 7.52539H3.35495H4.12885V7.45699C4.12885 7.38273 4.14253 7.38859 3.91779 7.35146C3.68327 7.31433 3.56992 7.22052 3.57383 7.07004C3.57579 6.95669 3.65005 6.74758 3.85134 6.28442L4.02136 5.89356L4.96138 5.8877L5.90139 5.88379L6.08314 6.31764C6.28247 6.79644 6.33719 6.96451 6.33719 7.09349C6.33719 7.1658 6.32547 7.18925 6.26489 7.25179C6.19258 7.32214 6.13395 7.34364 5.92289 7.37882C5.85449 7.38859 5.84862 7.39445 5.84862 7.45699V7.52539H6.816H7.78337V7.45699C7.78337 7.39836 7.77555 7.38859 7.7306 7.37882C7.46873 7.3241 7.39056 7.28892 7.28502 7.17948C7.12477 7.01532 7.11891 7.00164 6.00301 4.32622L5.25256 2.52437L5.18026 2.52241C5.14117 2.52241 5.10404 2.52828 5.09818 2.53805ZM5.39914 4.66236C5.61411 5.17438 5.78999 5.59846 5.78999 5.60237C5.78999 5.60628 5.42063 5.61019 4.96919 5.61019C4.51775 5.61019 4.14839 5.60628 4.14839 5.60042C4.14839 5.5926 4.88907 3.86306 4.9516 3.72821C4.97115 3.68522 4.97896 3.67935 4.99264 3.7028C5.00242 3.71844 5.18416 4.15034 5.39914 4.66236Z" fill="#B5AFA2"/>
<path d="M11.3599 2.67681V2.75303L11.5318 2.76085C11.6706 2.76671 11.7273 2.78039 11.8152 2.82339C11.9442 2.88592 11.997 2.95041 12.0243 3.08135C12.038 3.14584 12.0439 3.82203 12.04 5.11186C12.0341 7.24203 12.04 7.11696 11.9149 7.23617C11.8289 7.31629 11.7234 7.35147 11.5338 7.3632L11.3599 7.37492V7.43941V7.50586H12.4054H13.451V7.43941V7.37492L13.2868 7.36515C13.0835 7.35538 12.892 7.27134 12.8256 7.16386C12.7533 7.04856 12.7455 6.75737 12.7513 4.89493C12.7591 3.32173 12.7611 3.1478 12.7924 3.0579C12.8608 2.85075 12.9858 2.77257 13.2712 2.76085L13.451 2.75303V2.67681V2.6006H12.4054H11.3599V2.67681Z" fill="#B5AFA2"/>
<path d="M2.58301 11.0395V13.5215H2.89569H3.20838L3.21229 11.5379L3.21815 9.55233L4.50798 11.5359L5.79781 13.5195L6.16522 13.5215H6.53067V11.0395V8.55759H6.21798H5.9053L5.90139 10.5646L5.89553 12.5737L4.59592 10.5705L3.29437 8.56736L2.93869 8.5615L2.58301 8.55759V11.0395Z" fill="#00256C"/>
<path d="M7.21436 11.0395V13.5215L8.93999 13.5176L10.6637 13.5117L10.6695 13.2322L10.6754 12.9547H9.27613H7.87881V12.1046V11.2545H9.16864H10.4585V10.9711V10.6878H9.16864H7.87881V9.90605V9.12434L9.26245 9.12043L10.6441 9.11457L10.65 8.8351L10.6559 8.55759H8.93413H7.21436V11.0395Z" fill="#00256C"/>
<path d="M6.05763 2.65327C6.04981 2.65913 6.04395 2.69431 6.04395 2.72753C6.04395 2.78811 6.04785 2.79202 6.14361 2.80375C6.29605 2.82525 6.44067 2.88778 6.54424 2.97768C6.66736 3.08712 6.68495 3.1223 7.76567 5.61597L8.65292 7.66406L8.72914 7.6582L8.8034 7.65234L9.67697 5.52216C10.1577 4.34959 10.5798 3.33531 10.617 3.26691C10.6952 3.1223 10.828 2.96791 10.9316 2.90146C10.9727 2.87606 11.0586 2.84088 11.1251 2.82134L11.2443 2.78811L11.2384 2.71971L11.2326 2.64936L10.4763 2.6435L9.71801 2.63959V2.71385V2.79007L9.83135 2.81352C10.0522 2.86238 10.189 2.95618 10.2242 3.08126C10.2515 3.18288 10.1909 3.39785 9.98379 3.90988C9.35451 5.47135 8.92652 6.50712 8.91284 6.49344C8.88548 6.46608 7.64255 3.58351 7.58392 3.41349C7.51357 3.20047 7.5038 3.0539 7.56047 2.97768C7.61715 2.89951 7.74418 2.84088 7.91224 2.81352L8.05882 2.79007L8.05295 2.71971L8.04709 2.64936L7.05822 2.6435C6.51493 2.64154 6.06349 2.64545 6.05763 2.65327Z" fill="#B5AFA2"/>
<path d="M0.293945 2.20668V2.74316H0.830429H1.36691V2.20668V1.6702H0.830429H0.293945V2.20668Z" fill="#00256C"/>
<path d="M0.293945 3.87563V4.41211H0.830429H1.36691V3.87563V3.33914H0.830429H0.293945V3.87563Z" fill="#00256C"/>
<path d="M0.293945 5.54457V6.08105H0.830429H1.36691V5.54457V5.00809H0.830429H0.293945V5.54457Z" fill="#00256C"/>
<path d="M0.293945 7.21352V7.75H0.830429H1.36691V7.21352V6.67703H0.830429H0.293945V7.21352Z" fill="#00256C"/>
<path d="M0.293945 8.89438V9.41895H0.830429H1.36691V8.89438V8.36982H0.830429H0.293945V8.89438Z" fill="#00256C"/>
<path d="M0.293945 10.5758V11.1123H0.830429H1.36691V10.5758V10.0393H0.830429H0.293945V10.5758Z" fill="#00256C"/>
<path d="M0.293945 12.2448V12.7812H0.830429H1.36691V12.2448V11.7083H0.830429H0.293945V12.2448Z" fill="#00256C"/>
<path d="M0.293945 13.9137V14.4502H0.830429H1.36691V13.9137V13.3772H0.830429H0.293945V13.9137Z" fill="#00256C"/>
</svg>
